<svg width="74" height="151" viewBox="0 0 74 151" fill="none" xmlns="http://www.w3.org/2000/svg">
<path d="M16.5667 0L11.8333 26.4C11.1423 30.264 20.2681 32.0688 20.1167 36L18.9333 67.2C18.7535 72 23.6667 72 23.6667 72C23.6667 72 28.5799 72 28.4 67.2L27.2167 36C27.0699 32.0736 35.4195 30.336 35.5 26.4L30.7667 0H28.4L29.5833 19.2L26.0333 21.6L24.85 0H22.4833L21.3 21.6L17.75 19.2L18.9333 0H16.5667ZM56.8 0C53.3163 0 47.5037 3.144 45.1797 7.8576C43.239 11.3904 42.6 19.2864 42.6 24V36C42.6 39.9264 47.7593 40.8 49.7 40.8L47.3333 67.2C46.9073 71.9808 52.0667 72 52.0667 72C52.0667 72 56.8 72 56.8 67.2V0Z" fill="black"/>
<path d="M58.967 95.777C58.967 101.777 17.187 103.597 17.625 96.784C7.97 132.023 26.962 139.375 38.5 139.375C50.038 139.375 70.395 133.355 58.967 95.777Z" fill="#EA5A47"/>
<path d="M64.417 91.5C58.28 98.625 50.969 101.19 38 101.188C25.031 101.189 17.719 98.625 11.583 91.5" stroke="black" stroke-width="2" stroke-miterlimit="10" stroke-linecap="round" stroke-linejoin="round"/>
<path d="M64.417 91.5C58.28 98.625 50.969 101.19 38 101.188C25.031 101.189 17.719 98.625 11.583 91.5" stroke="black" stroke-width="2" stroke-miterlimit="10" stroke-linecap="round" stroke-linejoin="round"/>
<path d="M38.5 139.375V113.196M59.375 100.75C68.5 134.188 50.038 139.375 38.5 139.375C26.962 139.375 8.49999 134.187 17.625 100.75H59.375Z" stroke="black" stroke-width="2" stroke-miterlimit="10" stroke-linecap="round" stroke-linejoin="round"/>
</svg>
